<?xml version="1.0" encoding="UTF-8"?>
<svg id="Capa_1" data-name="Capa 1" xmlns="http://www.w3.org/2000/svg" viewBox="0 0 373.91 570.14">
  <defs>
    <style>
      .cls-1 {
        fill: #fff;
      }
    </style>
  </defs>
  <polygon class="cls-1" points="243.67 397.55 211.99 402.35 243.67 407.15 243.67 397.55"/>
  <path class="cls-1" d="M333.9,493.35l-1.67-369.15v-20.99l26.41.05-.03-46.23h-120.07l-.66-24.87c-.21-8.01-6.68-14.4-14.59-14.4h-66.9c-7.89,0-14.35,6.36-14.58,14.35l-.74,25.82H21.47v44.52h24.34v410.85h-24.34v36.24h336.91v-35.96h-24.48v-20.23ZM131.86,513.61H61.44V102.16h70.42v411.45ZM197.78,302.61c.83,0,1.55-.01,2.16-.05.61-.03,1.46-.05,2.54-.05.77,0,1.68.02,2.74.05,1.06.03,2.15.06,3.26.1,1.12.03,2.24.06,3.36.1,1.12.03,2.16.08,3.12.14v19.3h11.14v-16.8h14.3v16.8h10.75v-19.58c1.47-.06,2.98-.13,4.51-.19,1.54-.06,3.26-.11,5.18-.14,1.92-.03,4.18-.05,6.77-.05h9.26c-.06,1.79-.11,4.16-.14,7.1-.03,2.94-.06,6.1-.1,9.46-.03,3.36-.05,6.72-.05,10.08v8.88c-1.34-.06-3.13-.11-5.38-.14-2.24-.03-4.8-.05-7.68-.05h-19.78c-4.86,0-9.73.02-14.59.05-4.86.03-9.39.05-13.58.05s-7.82.02-10.9.05c-3.07.03-5.25.05-6.53.05v-8.26c0-3.01-.01-6.08-.05-9.22-.03-3.13-.08-6.21-.14-9.22-.06-3.01-.13-5.82-.19-8.45ZM276.6,500.94l-78.53,15.55v-16.42l59.71-11.04-59.71-11.13v-16.32l78.53,15.55v23.81ZM276.6,459.76c-2.24.06-4.5.13-6.77.19-2.27.06-4.53.1-6.77.1s-4.58-.03-6.82-.1c-2.24-.06-4.51-.13-6.82-.19v-7.2h-15.55c-4.1,0-7.58.02-10.46.05-2.88.03-5.54.05-7.97.05v7.1c-1.47.06-2.91.13-4.32.19-1.41.06-2.85.1-4.32.1s-2.94-.03-4.42-.1c-1.47-.06-2.91-.13-4.32-.19v-29.57c1.47-.06,2.93-.1,4.37-.1h8.69c1.41,0,2.85.03,4.32.1v7.01c4.29.13,8.51.21,12.67.24,4.16.03,8.8.05,13.92.05h7.39v-7.3c2.3-.06,4.58-.1,6.82-.1h13.58c2.27,0,4.53.03,6.77.1v29.57ZM276.6,392.56l-15.74,2.4v14.78l15.74,2.3v16.32l-78.53-14.21v-23.71l78.53-14.11v16.22ZM277.32,369.57c-.22,2.21-.62,4.37-1.2,6.48-2.17.13-4.4.22-6.67.29-2.27.06-4.53.1-6.77.1s-4.61-.03-6.91-.1c-2.3-.06-4.61-.16-6.91-.29.71-1.6,1.22-3.04,1.54-4.32.32-1.28.48-2.62.48-4.03,0-1.98-.34-3.6-1.01-4.85s-1.71-2.24-3.12-2.98c-1.41-.74-3.23-1.23-5.47-1.49-2.24-.25-4.9-.38-7.97-.38h-18.82v13.34h-16.42v-28.42h37.44c4.54,0,8.32.02,11.33.05,3.01.03,5.47.08,7.39.14,1.92.06,3.42.16,4.51.29,1.09.13,2.05.26,2.88.38,4.8.83,8.67,2.9,11.62,6.19,2.95,3.3,4.42,7.95,4.42,13.97,0,1.54-.11,3.41-.34,5.62ZM277.41,284.42c-.16,1.76-.38,3.54-.67,5.33-.29,1.79-.64,3.49-1.06,5.09-.42,1.6-.91,2.88-1.49,3.84-1.15.26-2.33.46-3.55.62-1.21.16-2.56.24-4.03.24-1.02,0-2.27-.05-3.74-.14-1.47-.1-2.98-.21-4.51-.34-1.54-.13-3.01-.27-4.42-.43-1.41-.16-2.59-.3-3.55-.43.38-.7.82-1.73,1.3-3.07.48-1.34.95-2.8,1.39-4.37.45-1.57.83-3.15,1.15-4.75.32-1.6.48-3.01.48-4.22,0-2.05-.43-3.58-1.3-4.61-.86-1.02-2.03-1.54-3.5-1.54-1.6,0-3.02.58-4.27,1.73-1.25,1.15-2.48,2.59-3.7,4.32-1.21,1.73-2.51,3.6-3.89,5.62-1.38,2.02-2.99,3.89-4.85,5.62-1.86,1.73-4.05,3.17-6.58,4.32-2.53,1.15-5.55,1.73-9.07,1.73-4.09,0-7.47-.78-10.13-2.35-2.66-1.57-4.77-3.55-6.34-5.95-1.57-2.4-2.66-5.06-3.26-7.97-.61-2.91-.91-5.71-.91-8.4,0-.77.03-1.74.1-2.93.06-1.18.16-2.43.29-3.74.13-1.31.3-2.66.53-4.03.23-1.38.53-2.67.91-3.89,1.67-.13,3.22-.22,4.66-.29,1.44-.06,3.09-.1,4.94-.1s3.63.03,5.33.1c1.7.06,3.31.16,4.85.29-.06.51-.16,1.17-.29,1.97-.13.8-.22,1.63-.29,2.5-.06.86-.13,1.73-.19,2.59-.06.86-.1,1.68-.1,2.45,0,3.07.48,5.31,1.44,6.72.96,1.41,2.27,2.11,3.94,2.11.96,0,1.87-.22,2.74-.67.86-.45,1.68-1.04,2.45-1.78.77-.74,1.5-1.57,2.21-2.5.71-.93,1.38-1.87,2.02-2.83,1.09-1.54,2.29-3.09,3.6-4.66,1.31-1.57,2.88-2.99,4.7-4.27,1.82-1.28,3.94-2.34,6.34-3.17,2.4-.83,5.17-1.25,8.3-1.25,4.1,0,7.55.71,10.37,2.11,2.82,1.41,5.1,3.22,6.86,5.42,1.76,2.21,3.04,4.67,3.84,7.39.8,2.72,1.2,5.42,1.2,8.11,0,1.22-.08,2.7-.24,4.46Z"/>
</svg>