<?xml version="1.0" encoding="UTF-8"?>
<svg id="Capa_1" data-name="Capa 1" xmlns="http://www.w3.org/2000/svg" viewBox="0 0 558.45 367.73">
  <defs>
    <style>
      .cls-1 {
        fill: #fff;
      }
    </style>
  </defs>
  <path class="cls-1" d="M393.1,151.43c1.02-1.63,1.79-3.58,2.3-5.86.51-2.27.77-4.78.77-7.54s-.26-5.29-.77-7.63c-.51-2.34-1.28-4.37-2.3-6.1-1.02-1.73-2.32-3.07-3.89-4.03-1.57-.96-3.38-1.44-5.42-1.44s-3.82.5-5.33,1.49c-1.5.99-2.78,2.35-3.84,4.08-1.06,1.73-1.84,3.76-2.35,6.1-.51,2.34-.77,4.85-.77,7.54s.25,5.26.77,7.54c.51,2.27,1.3,4.22,2.35,5.86,1.06,1.63,2.34,2.91,3.84,3.84,1.5.93,3.28,1.39,5.33,1.39s3.86-.46,5.42-1.39c1.57-.93,2.86-2.21,3.89-3.84Z"/>
  <polygon class="cls-1" points="216.46 147.44 211.66 115.76 206.87 147.44 216.46 147.44"/>
  <path class="cls-1" d="M327.58,149.51c1.5-1.76,2.67-3.82,3.5-6.19.83-2.37,1.25-4.9,1.25-7.58,0-1.98-.27-4.11-.82-6.38-.54-2.27-1.47-4.33-2.78-6.19-1.31-1.86-3.04-3.41-5.18-4.66-2.15-1.25-4.82-1.87-8.02-1.87-.64,0-1.23.03-1.78.1-.54.06-1.07.13-1.58.19-.06,3.01-.1,6-.1,8.98v8.98c0,1.47.02,3.04.05,4.7.03,1.67.06,3.38.1,5.14.03,1.76.08,3.52.14,5.28.06,1.76.1,3.41.1,4.94.58.13,1.15.21,1.73.24.58.03,1.09.05,1.54.05,2.37,0,4.56-.51,6.58-1.54,2.02-1.02,3.78-2.41,5.28-4.18Z"/>
  <path class="cls-1" d="M236.53,242.48c0-1.98-.27-3.58-.82-4.8-.54-1.21-1.28-2.18-2.21-2.88s-2.02-1.18-3.26-1.44c-1.25-.25-2.58-.38-3.98-.38-1.02,0-2.16.05-3.41.14-1.25.1-2.51.24-3.79.43v18.43c1.98.19,3.81.29,5.47.29,4.35,0,7.44-.82,9.26-2.45,1.82-1.63,2.74-4.08,2.74-7.34Z"/>
  <path class="cls-1" d="M544.31,329.69V75.06s-1.99-5.17-1.99-5.17l-74.2-52.24-6.61-1.79-418.4-.05c-13.34.52-27.64,7.85-28.98,22.27l.03,292.43c1.88,12.81,13.28,19.23,25.21,21.42h478.85c11.86-1.27,24.74-9.71,26.08-22.23ZM419.94,69.62v-26.05h26.04v26.05h-26.04ZM507.31,254.46v26.89h-86.53v-26.89h86.53ZM507.31,128.43v26.05h-86.53v-26.05h86.53ZM507.31,86.42v26.05h-86.53v-26.05h86.53ZM25.81,180.37c.06-1.02.11-2.77.14-5.23.03-2.46.05-5.38.05-8.74v-47.86c0-3.65-.02-6.91-.05-9.79-.03-2.88-.08-5.15-.14-6.82,2.5,0,5.25-.01,8.26-.05,3.01-.03,6.08-.06,9.22-.1,3.13-.03,6.21-.08,9.22-.14,3.01-.06,5.82-.13,8.45-.19.06.96.1,1.89.1,2.78v2.69c0,1.86-.03,3.78-.1,5.76-.06,1.98-.16,3.97-.29,5.95h-19.3v14.4h16.03v16.32h-16.03c0,3.2.01,6.37.05,9.5.03,3.14.06,6.08.1,8.83.03,2.75.08,5.23.14,7.44.06,2.21.13,3.95.19,5.23h-16.03ZM80.19,179.84c-2.91-1.06-5.36-2.48-7.34-4.27-1.98-1.79-3.57-3.92-4.75-6.38-1.18-2.46-2.1-5.1-2.74-7.92-.64-2.82-1.06-5.73-1.25-8.74-.19-3.01-.29-6.02-.29-9.02,0-2.37.03-4.9.1-7.58.06-2.69.16-5.7.29-9.02.13-3.33.27-7.04.43-11.14.16-4.1.34-8.74.53-13.92h16.9c-.19,5.76-.35,10.64-.48,14.64-.13,4-.24,7.34-.34,10.03-.1,2.69-.16,4.82-.19,6.38-.03,1.57-.06,2.77-.1,3.6-.03.83-.05,1.42-.05,1.78v.82c0,6.21.7,10.88,2.11,14.02,1.41,3.14,3.94,4.7,7.58,4.7s6.22-1.7,7.54-5.09c1.31-3.39,1.97-8.54,1.97-15.46v-1.1c0-.42-.02-1.07-.05-1.97-.03-.9-.06-2.1-.1-3.6-.03-1.5-.1-3.52-.19-6.05-.1-2.53-.21-5.63-.34-9.31-.13-3.68-.29-8.14-.48-13.39l17.28-.1c.13,9.35.32,17.42.58,24.24.25,6.82.38,12.62.38,17.42,0,3.14-.1,6.26-.29,9.36-.19,3.1-.61,6.06-1.25,8.88-.64,2.82-1.55,5.42-2.74,7.82-1.18,2.4-2.75,4.5-4.7,6.29-1.95,1.79-4.37,3.18-7.25,4.18-2.88.99-6.3,1.49-10.27,1.49s-7.6-.53-10.51-1.58ZM163.95,101.84h19.39c-.19,13.06-.29,26.15-.29,39.26s.1,26.21.29,39.26h-15.36l.96-48.1-12.38,44.74h-8.93l-11.62-43.49c.06,7.81.21,15.68.43,23.62.22,7.94.4,15.68.53,23.23h-15.17c.13-6.59.22-13.14.29-19.63.06-6.5.1-13.04.1-19.63s-.03-13.14-.1-19.63c-.06-6.49-.16-13.04-.29-19.63h20.54l10.18,45.02,11.42-45.02ZM278.19,101.84h13.73c-.19,13.06-.29,26.15-.29,39.26s.1,26.21.29,39.26h-18.53l-20.35-46.94v46.94h-13.15c.13-6.59.22-13.14.29-19.63.06-6.5.1-13.04.1-19.63s-.03-13.14-.1-19.63c-.06-6.49-.16-13.04-.29-19.63h19.39l18.91,46.85v-46.85ZM237.68,180.37h-16.22l-2.4-15.74h-14.78l-2.3,15.74h-16.32l14.21-78.53h23.71l14.11,78.53ZM308.19,181.23c-3.3-.13-6.93-.42-10.9-.86.06-2.94.11-5.81.14-8.59.03-2.78.06-5.54.1-8.26.03-2.72.05-5.46.05-8.21v-8.54c0-8.38-.05-16.42-.14-24.1-.1-7.68-.27-14.53-.53-20.54,3.65-.51,7.14-.88,10.46-1.1,3.33-.22,6.18-.34,8.54-.34,5.63,0,10.82.77,15.55,2.3,4.74,1.54,8.89,4.29,12.48,8.26,3.26,3.71,5.7,8.21,7.3,13.49,1.6,5.28,2.4,10.96,2.4,17.04s-.77,11.36-2.3,16.22c-1.54,4.86-3.89,9.02-7.06,12.48s-7.15,6.14-11.95,8.06c-4.8,1.92-10.46,2.88-16.99,2.88-1.47,0-3.86-.06-7.15-.19ZM371.31,178.69c-3.52-1.82-6.43-4.48-8.74-7.97-2.3-3.49-4-7.78-5.09-12.86-1.09-5.09-1.63-10.9-1.63-17.42,0-13.12,2.27-23.02,6.82-29.71,4.54-6.69,11.58-10.03,21.12-10.03s16.58,3.39,21.12,10.18c4.54,6.78,6.82,16.64,6.82,29.57s-2.22,23.23-6.67,30.34c-4.45,7.1-11.54,10.66-21.26,10.66-4.8,0-8.96-.91-12.48-2.74ZM420.78,196.49v-26.05h86.53v26.05h-86.53ZM507.31,212.45v26.89h-85.27l-1.26-1.26v-25.63h86.53ZM126.03,281.84c.06,4.54.26,9.12.58,13.73h-16.9c.19-6.08.32-12.14.38-18.19.06-6.05.1-11.79.1-17.23,0-7.74-.05-15.1-.14-22.08-.1-6.97-.21-13.98-.34-21.02,3.14-.32,6.29-.59,9.46-.82,3.17-.22,6.29-.34,9.36-.34,4.42,0,8.54.35,12.38,1.06,3.84.71,7.18,2,10.03,3.89,2.85,1.89,5.1,4.51,6.77,7.87,1.66,3.36,2.5,7.67,2.5,12.91,0,4.86-.71,9.01-2.11,12.43-1.41,3.42-3.38,6.21-5.9,8.35-2.53,2.14-5.55,3.7-9.07,4.66s-7.42,1.44-11.71,1.44c-1.09,0-2.03-.03-2.83-.1-.8-.06-1.68-.16-2.64-.29,0,4.61.03,9.18.1,13.73ZM163.52,290.19c.03-2.24.05-4.8.05-7.68v-19.78c0-4.86-.02-9.73-.05-14.59-.03-4.86-.05-9.39-.05-13.58s-.02-7.82-.05-10.9c-.03-3.07-.05-5.25-.05-6.53h8.26c3.01,0,6.08-.02,9.22-.05,3.13-.03,6.21-.08,9.22-.14,3.01-.06,5.82-.13,8.45-.19,0,.83.01,1.55.05,2.16.03.61.05,1.46.05,2.54,0,.77-.02,1.68-.05,2.74-.03,1.06-.06,2.14-.1,3.26-.03,1.12-.06,2.24-.1,3.36-.03,1.12-.08,2.16-.14,3.12h-19.3v11.14h16.8v14.3h-16.8v10.75h19.58c.06,1.47.13,2.98.19,4.51.06,1.54.11,3.26.14,5.18.03,1.92.05,4.18.05,6.77v9.26c-1.79-.06-4.16-.11-7.1-.14-2.94-.03-6.1-.06-9.46-.1-3.36-.03-6.72-.05-10.08-.05h-8.88c.06-1.34.11-3.13.14-5.38ZM239.99,295.57l-12.77-29.28c-2.62.19-5.34.29-8.16.29,0,4.93.03,9.76.1,14.5.06,4.74.25,9.57.58,14.5h-16.61c.19-6.08.32-12.14.38-18.19.06-6.05.1-11.79.1-17.23,0-7.74-.05-15.1-.14-22.08-.1-6.97-.21-13.98-.34-21.02,3.13-.32,6.29-.59,9.46-.82,3.17-.22,6.38-.34,9.65-.34,4.67,0,9.06.34,13.15,1.01s7.65,1.92,10.66,3.74c3.01,1.82,5.39,4.34,7.15,7.54,1.76,3.2,2.64,7.33,2.64,12.38,0,6.27-1.3,11.2-3.89,14.78-2.59,3.58-6.1,6.27-10.51,8.06l15.65,32.16h-17.09ZM54.23,295.71c-2.94-.03-6.1-.06-9.46-.1-3.36-.03-6.72-.05-10.08-.05h-8.88c.06-1.34.11-3.13.14-5.38.03-2.24.05-4.8.05-7.68v-19.78c0-4.86-.02-9.73-.05-14.59-.03-4.86-.05-9.39-.05-13.58s-.02-7.82-.05-10.9c-.03-3.07-.05-5.25-.05-6.53h8.26c3.01,0,6.08-.02,9.22-.05,3.13-.03,6.21-.08,9.22-.14,3.01-.06,5.82-.13,8.45-.19,0,.83.01,1.55.05,2.16.03.61.05,1.46.05,2.54,0,.77-.02,1.68-.05,2.74-.03,1.06-.06,2.14-.1,3.26-.03,1.12-.06,2.24-.1,3.36-.03,1.12-.08,2.16-.14,3.12h-19.3v11.14h16.8v14.3h-16.8v10.75h19.58c.06,1.47.13,2.98.19,4.51.06,1.54.11,3.26.14,5.18.03,1.92.05,4.18.05,6.77v9.26c-1.79-.06-4.16-.11-7.1-.14ZM79.14,296.39c-1.76-.16-3.54-.38-5.33-.67-1.79-.29-3.49-.64-5.09-1.06-1.6-.42-2.88-.91-3.84-1.49-.26-1.15-.46-2.33-.62-3.55-.16-1.21-.24-2.56-.24-4.03,0-1.02.05-2.27.14-3.74.1-1.47.21-2.98.34-4.51.13-1.54.27-3.01.43-4.42.16-1.41.3-2.59.43-3.55.7.38,1.73.82,3.07,1.3,1.34.48,2.8.95,4.37,1.39,1.57.45,3.15.83,4.75,1.15,1.6.32,3.01.48,4.22.48,2.05,0,3.58-.43,4.61-1.3,1.02-.86,1.54-2.03,1.54-3.5,0-1.6-.58-3.02-1.73-4.27s-2.59-2.48-4.32-3.7c-1.73-1.21-3.6-2.51-5.62-3.89-2.02-1.38-3.89-2.99-5.62-4.85-1.73-1.86-3.17-4.05-4.32-6.58-1.15-2.53-1.73-5.55-1.73-9.07,0-4.09.78-7.47,2.35-10.13,1.57-2.66,3.55-4.77,5.95-6.34,2.4-1.57,5.05-2.65,7.97-3.26,2.91-.61,5.71-.91,8.4-.91.77,0,1.74.03,2.93.1,1.18.06,2.43.16,3.74.29,1.31.13,2.66.3,4.03.53,1.38.22,2.67.53,3.89.91.13,1.67.22,3.22.29,4.66.06,1.44.1,3.09.1,4.94s-.03,3.63-.1,5.33c-.06,1.7-.16,3.31-.29,4.85-.51-.06-1.17-.16-1.97-.29-.8-.13-1.63-.22-2.5-.29-.86-.06-1.73-.13-2.59-.19-.86-.06-1.68-.1-2.45-.1-3.07,0-5.31.48-6.72,1.44-1.41.96-2.11,2.27-2.11,3.94,0,.96.22,1.87.67,2.74.45.86,1.04,1.68,1.78,2.45.73.77,1.57,1.5,2.5,2.21.93.71,1.87,1.38,2.83,2.02,1.54,1.09,3.09,2.29,4.66,3.6,1.57,1.31,2.99,2.88,4.27,4.7,1.28,1.82,2.34,3.94,3.17,6.34.83,2.4,1.25,5.17,1.25,8.3,0,4.1-.71,7.55-2.11,10.37-1.41,2.82-3.22,5.1-5.42,6.86-2.21,1.76-4.67,3.04-7.39,3.84-2.72.8-5.42,1.2-8.11,1.2-1.22,0-2.7-.08-4.46-.24ZM273.1,293.89c-3.52-1.82-6.43-4.48-8.74-7.97-2.3-3.49-4-7.78-5.09-12.86-1.09-5.09-1.63-10.9-1.63-17.42,0-13.12,2.27-23.02,6.82-29.71,4.54-6.69,11.58-10.03,21.12-10.03s16.58,3.39,21.12,10.18c4.54,6.78,6.82,16.64,6.82,29.57s-2.22,23.23-6.67,30.34c-4.45,7.1-11.54,10.66-21.26,10.66-4.8,0-8.96-.91-12.48-2.74ZM420.78,321.68v-26.05h86.53v26.05h-86.53Z"/>
  <path class="cls-1" d="M294.9,266.63c1.02-1.63,1.79-3.58,2.3-5.86.51-2.27.77-4.78.77-7.54s-.26-5.29-.77-7.63c-.51-2.34-1.28-4.37-2.3-6.1-1.02-1.73-2.32-3.07-3.89-4.03-1.57-.96-3.38-1.44-5.42-1.44s-3.82.5-5.33,1.49c-1.5.99-2.78,2.35-3.84,4.08-1.06,1.73-1.84,3.76-2.35,6.1-.51,2.34-.77,4.85-.77,7.54s.25,5.26.77,7.54c.51,2.27,1.3,4.22,2.35,5.86,1.06,1.63,2.34,2.91,3.84,3.84,1.5.93,3.28,1.39,5.33,1.39s3.86-.46,5.42-1.39c1.57-.93,2.86-2.21,3.89-3.84Z"/>
  <path class="cls-1" d="M138.61,250.26c.83-.7,1.5-1.65,2.02-2.83.51-1.18.77-2.7.77-4.56s-.27-3.5-.82-4.75c-.54-1.25-1.27-2.22-2.16-2.93-.9-.7-1.94-1.18-3.12-1.44-1.18-.25-2.42-.38-3.7-.38-1.86,0-3.68.19-5.47.58v17.47c1.15.32,2.26.53,3.31.62s1.97.14,2.74.14c1.21,0,2.38-.14,3.5-.43,1.12-.29,2.1-.78,2.93-1.49Z"/>
</svg>