<?xml version="1.0" encoding="UTF-8"?>
<svg id="Capa_1" data-name="Capa 1" xmlns="http://www.w3.org/2000/svg" viewBox="0 0 558.45 367.73">
  <defs>
    <style>
      .cls-1 {
        fill: #fff;
      }
    </style>
  </defs>
  <path class="cls-1" d="M50.28,177.77c.83-.7,1.5-1.65,2.02-2.83.51-1.18.77-2.7.77-4.56s-.27-3.5-.82-4.75c-.54-1.25-1.26-2.22-2.16-2.93-.9-.7-1.94-1.18-3.12-1.44-1.19-.25-2.42-.38-3.7-.38-1.86,0-3.68.19-5.47.58v17.47c1.15.32,2.26.53,3.31.62s1.97.14,2.74.14c1.21,0,2.38-.14,3.5-.43,1.12-.29,2.09-.78,2.93-1.49Z"/>
  <polygon class="cls-1" points="372.26 190.15 381.86 190.15 377.06 158.47 372.26 190.15"/>
  <polygon class="cls-1" points="98.37 190.15 93.57 158.47 88.77 190.15 98.37 190.15"/>
  <path class="cls-1" d="M275.01,194.14c1.02-1.63,1.79-3.58,2.3-5.86.51-2.27.77-4.78.77-7.54s-.26-5.29-.77-7.63c-.51-2.34-1.28-4.37-2.3-6.1-1.02-1.73-2.32-3.07-3.89-4.03-1.57-.96-3.38-1.44-5.42-1.44s-3.82.5-5.33,1.49c-1.5.99-2.78,2.35-3.84,4.08-1.06,1.73-1.84,3.76-2.35,6.1-.51,2.34-.77,4.85-.77,7.54s.25,5.26.77,7.54c.51,2.27,1.3,4.22,2.35,5.86,1.06,1.63,2.34,2.91,3.84,3.84,1.5.93,3.28,1.39,5.33,1.39s3.86-.46,5.42-1.39c1.57-.93,2.86-2.21,3.89-3.84Z"/>
  <path class="cls-1" d="M540.29,327.88V73.25s-1.99-5.17-1.99-5.17l-74.2-52.24-6.61-1.79-418.4-.05c-13.34.52-27.64,7.85-28.98,22.27l.03,292.43c1.88,12.81,13.28,19.23,25.21,21.42h478.85c11.86-1.27,24.74-9.71,26.08-22.23ZM415.92,67.81v-26.05h26.04v26.05h-26.04ZM503.29,168.63v26.05h-86.53v-26.05h86.53ZM367.36,223.08h-33.02l-12.77-29.28c-2.62.19-5.34.29-8.16.29,0,4.93.03,9.76.1,14.5.06,4.74.25,9.57.58,14.5h-16.61c.19-6.08.32-12.14.38-18.19.06-6.05.1-11.79.1-17.23,0-7.74-.05-15.1-.14-22.08-.1-6.98-.21-13.98-.34-21.02,3.13-.32,6.29-.59,9.46-.82,3.17-.22,6.38-.34,9.65-.34,4.67,0,9.06.34,13.15,1.01,4.1.67,7.65,1.92,10.66,3.74,3.01,1.82,5.39,4.34,7.15,7.54,1.76,3.2,2.64,7.33,2.64,12.38,0,6.27-1.3,11.2-3.89,14.78-2.59,3.58-6.1,6.27-10.51,8.06l15.37,31.58,14.1-77.95h23.71l14.11,78.53h-16.22l-2.4-15.74h-14.78l-2.3,15.74ZM416.76,110.66v-26.05h86.53v26.05h-86.53ZM503.29,126.62v26.05h-86.53v-26.05h86.53ZM21.38,223.08c.19-6.08.32-12.14.38-18.19.06-6.05.1-11.79.1-17.23,0-7.74-.05-15.1-.14-22.08-.1-6.98-.21-13.98-.34-21.02,3.13-.32,6.29-.59,9.46-.82,3.17-.22,6.29-.34,9.36-.34,4.42,0,8.54.35,12.38,1.06,3.84.71,7.18,2,10.03,3.89,2.85,1.89,5.1,4.51,6.77,7.87,1.66,3.36,2.5,7.67,2.5,12.91,0,4.86-.71,9.01-2.11,12.43-1.41,3.42-3.38,6.21-5.91,8.35-2.53,2.14-5.55,3.7-9.07,4.66-3.52.96-7.42,1.44-11.71,1.44-1.09,0-2.03-.03-2.83-.1-.8-.06-1.68-.16-2.64-.29,0,4.61.03,9.18.1,13.73.06,4.54.25,9.12.58,13.73h-16.9ZM103.37,223.08l-2.4-15.74h-14.78l-2.3,15.74h-16.32l14.21-78.53h23.71l14.11,78.53h-16.22ZM155.3,223.08l-20.35-46.94v46.94h-13.15c.13-6.59.22-13.14.29-19.63.06-6.5.1-13.04.1-19.63s-.03-13.14-.1-19.63c-.06-6.5-.16-13.04-.29-19.63h19.39s18.91,46.85,18.91,46.85v-46.85h13.73c-.19,13.06-.29,26.15-.29,39.26s.1,26.21.29,39.26h-18.53ZM190.1,223.95c-3.3-.13-6.93-.42-10.9-.86.06-2.94.11-5.81.14-8.59.03-2.78.06-5.54.1-8.26.03-2.72.05-5.46.05-8.21v-8.54c0-8.38-.05-16.42-.14-24.1-.1-7.68-.27-14.53-.53-20.54,3.65-.51,7.14-.88,10.46-1.1,3.33-.22,6.18-.34,8.54-.34,5.63,0,10.82.77,15.55,2.3,4.74,1.54,8.89,4.29,12.48,8.26,3.26,3.71,5.7,8.21,7.3,13.49,1.6,5.28,2.4,10.96,2.4,17.04s-.77,11.36-2.3,16.22c-1.54,4.86-3.89,9.02-7.06,12.48s-7.15,6.14-11.95,8.06c-4.8,1.92-10.46,2.88-16.99,2.88-1.47,0-3.86-.06-7.15-.19ZM253.22,221.4c-3.52-1.82-6.43-4.48-8.74-7.97-2.3-3.49-4-7.78-5.09-12.86-1.09-5.09-1.63-10.9-1.63-17.42,0-13.12,2.27-23.02,6.82-29.71,4.54-6.69,11.58-10.03,21.12-10.03s16.58,3.39,21.12,10.18c4.54,6.78,6.82,16.64,6.82,29.57s-2.22,23.23-6.67,30.34c-4.45,7.1-11.54,10.65-21.26,10.65-4.8,0-8.96-.91-12.48-2.74ZM418.02,237.52l-1.26-1.26v-25.63h86.53v26.89h-85.27ZM416.76,279.53v-26.89h86.53v26.89h-86.53ZM416.76,319.86v-26.05h86.53v26.05h-86.53Z"/>
  <path class="cls-1" d="M209.49,192.22c1.5-1.76,2.67-3.82,3.5-6.19.83-2.37,1.25-4.9,1.25-7.58,0-1.98-.27-4.11-.82-6.38-.54-2.27-1.47-4.33-2.78-6.19-1.31-1.86-3.04-3.41-5.18-4.66-2.15-1.25-4.82-1.87-8.02-1.87-.64,0-1.23.03-1.78.1-.54.06-1.07.13-1.58.19-.06,3.01-.1,6-.1,8.98v8.98c0,1.47.02,3.04.05,4.7.03,1.67.06,3.38.1,5.14.03,1.76.08,3.52.14,5.28.06,1.76.1,3.41.1,4.94.58.13,1.15.21,1.73.24.58.03,1.09.05,1.54.05,2.37,0,4.56-.51,6.58-1.54,2.02-1.02,3.78-2.41,5.28-4.18Z"/>
  <path class="cls-1" d="M330.88,169.99c0-1.98-.27-3.58-.82-4.8-.54-1.21-1.28-2.18-2.21-2.88s-2.02-1.18-3.26-1.44c-1.25-.25-2.58-.38-3.98-.38-1.02,0-2.16.05-3.41.14-1.25.1-2.51.24-3.79.43v18.43c1.98.19,3.81.29,5.47.29,4.35,0,7.44-.82,9.26-2.45,1.82-1.63,2.74-4.08,2.74-7.34Z"/>
</svg>