<?xml version="1.0" encoding="UTF-8"?>
<svg id="Capa_1" data-name="Capa 1" xmlns="http://www.w3.org/2000/svg" viewBox="0 0 558.45 367.73">
  <defs>
    <style>
      .cls-1 {
        fill: #fff;
      }
    </style>
  </defs>
  <g id="LA_MALETA_ROJA" data-name="LA MALETA ROJA">
    <polygon class="cls-1" points="369.78 151.17 379.38 151.17 374.58 119.49 369.78 151.17"/>
    <polygon class="cls-1" points="217.62 151.17 212.82 119.49 208.02 151.17 217.62 151.17"/>
    <path class="cls-1" d="M544.31,333.42V78.79s-1.99-5.17-1.99-5.17l-74.2-52.24-6.61-1.79-418.4-.05c-13.34.52-27.64,7.85-28.98,22.27l.03,292.43c1.88,12.81,13.28,19.23,25.21,21.42h478.85c11.86-1.27,24.74-9.71,26.08-22.23ZM419.94,73.35v-26.05h26.04v26.05h-26.04ZM187.95,299.3h-16.32l14.21-78.53h23.71l14.11,78.53h-16.22l-2.4-15.74h-14.78l-2.3,15.74ZM507.31,258.19v26.89h-86.53v-26.89h86.53ZM507.31,132.16v26.05h-86.53v-26.05h86.53ZM364.88,184.1h-16.32l14.21-78.53h23.71l14.11,78.53h-16.22l-2.4-15.74h-14.78l-2.3,15.74ZM341.27,140.66c-.06,5.86-.1,12.18-.1,18.96v17.04c0,1.7.01,3.07.05,4.13.03,1.06.05,2.16.05,3.31h-16.13c.06-2.82.13-5.74.19-8.78.06-3.04.11-6.34.14-9.89.03-3.55.06-7.39.1-11.52s.05-8.69.05-13.68v-9.5c0-2.69-.03-5.15-.1-7.39h-11.04v-17.76h38.11v17.76h-11.04c-.13,5.7-.22,11.47-.29,17.33ZM507.31,90.15v26.05h-86.53v-26.05h86.53ZM25.62,184.1c.19-8.96.34-18.14.43-27.55s.14-18.59.14-27.55v-12.1c0-3.9-.03-7.68-.1-11.33h16.22c-.19,8.77-.34,16-.43,21.7-.1,5.7-.18,10.48-.24,14.35-.06,3.87-.1,7.12-.1,9.74v7.97l15.07-.58c.13,2.11.22,4.19.29,6.24.06,2.05.1,4.1.1,6.14s-.03,4.24-.1,6.38c-.06,2.15-.16,4.34-.29,6.58h-31.01ZM93.68,184.1l-2.4-15.74h-14.78l-2.3,15.74h-16.32l14.21-78.53h23.71l14.11,78.53h-16.22ZM169.14,184.1l.96-48.1-12.38,44.74h-8.93l-11.62-43.49c.06,7.81.21,15.68.43,23.62.22,7.94.4,15.68.53,23.23h-15.17c.13-6.59.22-13.14.29-19.63.06-6.5.1-13.04.1-19.63s-.03-13.14-.1-19.63c-.06-6.49-.16-13.04-.29-19.63h20.54l10.18,45.02,11.42-45.02h19.39c-.19,13.06-.29,26.15-.29,39.26s.1,26.21.29,39.26h-15.36ZM222.61,184.1l-2.4-15.74h-14.78l-2.3,15.74h-16.32l14.21-78.53h23.71l14.11,78.53h-16.22ZM240.95,184.1c.19-8.96.34-18.14.43-27.55.1-9.41.14-18.59.14-27.55v-12.1c0-3.9-.03-7.68-.1-11.33h16.22c-.19,8.77-.34,16-.43,21.7-.1,5.7-.18,10.48-.24,14.35-.06,3.87-.1,7.12-.1,9.74v7.97l15.07-.58c.13,2.11.22,4.19.29,6.24.06,2.05.1,4.1.1,6.14s-.03,4.24-.1,6.38c-.06,2.15-.16,4.34-.29,6.58h-31.01ZM304.69,184.24c-2.94-.03-6.1-.06-9.46-.1-3.36-.03-6.72-.05-10.08-.05h-8.88c.06-1.34.11-3.13.14-5.38.03-2.24.05-4.8.05-7.68v-19.78c0-4.86-.02-9.73-.05-14.59-.03-4.86-.05-9.39-.05-13.58s-.02-7.82-.05-10.9c-.03-3.07-.05-5.25-.05-6.53h8.26c3.01,0,6.08-.01,9.22-.05,3.13-.03,6.21-.08,9.22-.14,3.01-.06,5.82-.13,8.45-.19,0,.83.01,1.55.05,2.16.03.61.05,1.46.05,2.54,0,.77-.02,1.68-.05,2.74-.03,1.06-.06,2.15-.1,3.26-.03,1.12-.06,2.24-.1,3.36-.03,1.12-.08,2.16-.14,3.12h-19.3v11.14h16.8v14.3h-16.8v10.75h19.58c.06,1.47.13,2.98.19,4.51.06,1.54.11,3.26.14,5.18.03,1.92.05,4.18.05,6.77v9.26c-1.79-.06-4.16-.11-7.1-.14ZM420.78,200.22v-26.05h86.53v26.05h-86.53ZM507.31,216.18v26.89h-85.27l-1.26-1.26v-25.63h86.53ZM62.58,299.3l-12.77-29.28c-2.62.19-5.34.29-8.16.29,0,4.93.03,9.76.1,14.5.06,4.74.25,9.57.58,14.5h-16.61c.19-6.08.32-12.14.38-18.19.06-6.05.1-11.79.1-17.23,0-7.74-.05-15.1-.14-22.08-.1-6.97-.21-13.98-.34-21.02,3.13-.32,6.29-.59,9.46-.82,3.17-.22,6.38-.34,9.65-.34,4.67,0,9.06.34,13.15,1.01s7.65,1.92,10.66,3.74c3.01,1.82,5.39,4.34,7.15,7.54,1.76,3.2,2.64,7.33,2.64,12.38,0,6.27-1.3,11.2-3.89,14.78-2.59,3.58-6.1,6.27-10.51,8.06l15.65,32.16h-17.09ZM95.7,297.62c-3.52-1.82-6.43-4.48-8.74-7.97-2.3-3.49-4-7.78-5.09-12.86-1.09-5.09-1.63-10.9-1.63-17.42,0-13.12,2.27-23.02,6.82-29.71,4.54-6.69,11.58-10.03,21.12-10.03s16.57,3.39,21.12,10.18c4.54,6.78,6.82,16.64,6.82,29.57s-2.22,23.23-6.67,30.34c-4.45,7.1-11.54,10.66-21.26,10.66-4.8,0-8.96-.91-12.48-2.74ZM143.94,300.02c-2.21-.22-4.37-.62-6.48-1.2-.13-2.17-.22-4.4-.29-6.67-.06-2.27-.1-4.53-.1-6.77s.03-4.61.1-6.91c.06-2.3.16-4.61.29-6.91,1.6.71,3.04,1.22,4.32,1.54,1.28.32,2.62.48,4.03.48,1.98,0,3.6-.34,4.85-1.01s2.24-1.71,2.98-3.12c.74-1.41,1.23-3.23,1.49-5.47.25-2.24.38-4.9.38-7.97v-18.82h-13.34v-16.42h28.42v37.44c0,4.54-.02,8.32-.05,11.33-.03,3.01-.08,5.47-.14,7.39-.06,1.92-.16,3.42-.29,4.51-.13,1.09-.26,2.05-.38,2.88-.83,4.8-2.9,8.67-6.19,11.62-3.3,2.95-7.95,4.42-13.97,4.42-1.54,0-3.41-.11-5.62-.34ZM420.78,325.41v-26.05h86.53v26.05h-86.53Z"/>
    <path class="cls-1" d="M117.49,270.35c1.02-1.63,1.79-3.58,2.3-5.86.51-2.27.77-4.78.77-7.54s-.26-5.29-.77-7.63c-.51-2.34-1.28-4.37-2.3-6.1-1.02-1.73-2.32-3.07-3.89-4.03-1.57-.96-3.38-1.44-5.42-1.44s-3.83.5-5.33,1.49c-1.5.99-2.79,2.35-3.84,4.08-1.06,1.73-1.84,3.76-2.35,6.1-.51,2.34-.77,4.85-.77,7.54s.26,5.26.77,7.54c.51,2.27,1.3,4.22,2.35,5.86,1.05,1.63,2.33,2.91,3.84,3.84,1.5.93,3.28,1.39,5.33,1.39s3.85-.46,5.42-1.39c1.57-.93,2.86-2.21,3.89-3.84Z"/>
    <path class="cls-1" d="M59.12,246.21c0-1.98-.27-3.58-.82-4.8-.54-1.21-1.28-2.18-2.21-2.88-.93-.7-2.02-1.18-3.26-1.44-1.25-.25-2.58-.38-3.98-.38-1.03,0-2.16.05-3.41.14-1.25.1-2.51.24-3.79.43v18.43c1.98.19,3.81.29,5.47.29,4.35,0,7.44-.82,9.26-2.45s2.74-4.08,2.74-7.34Z"/>
    <polygon class="cls-1" points="88.69 151.17 83.89 119.49 79.09 151.17 88.69 151.17"/>
    <polygon class="cls-1" points="192.85 266.37 202.45 266.37 197.65 234.69 192.85 266.37"/>
  </g>
</svg>