<?xml version="1.0" encoding="UTF-8"?>
<svg id="Capa_1" data-name="Capa 1" xmlns="http://www.w3.org/2000/svg" viewBox="0 0 373.91 570.14">
  <defs>
    <style>
      .cls-1 {
        fill: #fff;
      }
    </style>
  </defs>
  <path class="cls-1" d="M247.65,247.79c-1.63-1.02-3.58-1.79-5.86-2.3-2.27-.51-4.78-.77-7.54-.77s-5.29.26-7.63.77c-2.34.51-4.37,1.28-6.1,2.3-1.73,1.02-3.07,2.32-4.03,3.89-.96,1.57-1.44,3.38-1.44,5.42s.5,3.82,1.49,5.33c.99,1.5,2.35,2.78,4.08,3.84,1.73,1.06,3.76,1.84,6.1,2.35,2.34.51,4.85.77,7.54.77s5.26-.25,7.54-.77c2.27-.51,4.22-1.3,5.86-2.35,1.63-1.06,2.91-2.34,3.84-3.84.93-1.5,1.39-3.28,1.39-5.33s-.46-3.86-1.39-5.42c-.93-1.57-2.21-2.86-3.84-3.89Z"/>
  <path class="cls-1" d="M333.9,493.35l-1.67-369.15v-20.99l26.41.05-.03-46.23h-120.07l-.66-24.87c-.21-8.01-6.68-14.4-14.59-14.4h-66.9c-7.89,0-14.35,6.36-14.58,14.35l-.74,25.82H21.47v44.52h24.34v410.85h-24.34v36.24h336.91v-35.96h-24.48v-20.23ZM131.86,513.61H61.44V102.16h70.42v411.45ZM276.74,484.91c-.03,2.94-.06,6.1-.1,9.46-.03,3.36-.05,6.72-.05,10.08v8.88c-1.34-.06-3.13-.11-5.38-.14-2.24-.03-4.8-.05-7.68-.05h-19.78c-4.86,0-9.73.02-14.59.05-4.86.03-9.39.05-13.58.05s-7.82.02-10.9.05c-3.07.03-5.25.05-6.53.05v-8.26c0-3.01-.01-6.08-.05-9.22-.03-3.13-.08-6.21-.14-9.22-.06-3.01-.13-5.82-.19-8.45.83,0,1.55-.01,2.16-.05.61-.03,1.46-.05,2.54-.05.77,0,1.68.02,2.74.05,1.06.03,2.15.06,3.26.1,1.12.03,2.24.06,3.36.1,1.12.03,2.16.08,3.12.14v19.3h11.14v-16.8h14.3v16.8h10.75v-19.58c1.47-.06,2.98-.13,4.51-.19,1.54-.06,3.26-.11,5.18-.14,1.92-.03,4.18-.05,6.77-.05h9.26c-.06,1.79-.11,4.16-.14,7.1ZM198.07,438.06v-16.32l78.53,15.55v23.81l-78.53,15.55v-16.42l59.71-11.04-59.71-11.14ZM276.74,391.12c-.03,2.94-.06,6.1-.1,9.46-.03,3.36-.05,6.72-.05,10.08v8.88c-1.34-.06-3.13-.11-5.38-.14-2.24-.03-4.8-.05-7.68-.05h-19.78c-4.86,0-9.73.02-14.59.05-4.86.03-9.39.05-13.58.05s-7.82.02-10.9.05c-3.07.03-5.25.05-6.53.05v-8.26c0-3.01-.01-6.08-.05-9.22-.03-3.13-.08-6.21-.14-9.22-.06-3.01-.13-5.82-.19-8.45.83,0,1.55-.01,2.16-.05.61-.03,1.46-.05,2.54-.05.77,0,1.68.02,2.74.05,1.06.03,2.15.06,3.26.1,1.12.03,2.24.06,3.36.1,1.12.03,2.16.08,3.12.14v19.3h11.14v-16.8h14.3v16.8h10.75v-19.58c1.47-.06,2.98-.13,4.51-.19,1.54-.06,3.26-.11,5.18-.14,1.92-.03,4.18-.05,6.77-.05h9.26c-.06,1.79-.11,4.16-.14,7.1ZM198.07,341.49v-13.73c13.06.19,26.15.29,39.26.29s26.21-.1,39.26-.29v18.53l-46.94,20.35h46.94v13.15c-6.59-.13-13.14-.22-19.63-.29-6.5-.06-13.04-.1-19.63-.1s-13.14.03-19.63.1c-6.49.06-13.04.16-19.63.29v-19.39l46.85-18.91h-46.85ZM233.16,297.23c5.86.06,12.18.1,18.96.1h17.04c1.7,0,3.07-.01,4.13-.05,1.06-.03,2.16-.05,3.31-.05v16.13c-2.82-.06-5.74-.13-8.78-.19-3.04-.06-6.34-.11-9.89-.14-3.55-.03-7.39-.06-11.52-.1s-8.69-.05-13.68-.05h-9.5c-2.69,0-5.15.03-7.39.1v11.04h-17.76v-38.11h17.76v11.04c5.7.13,11.47.22,17.33.29ZM274.92,269.58c-1.82,3.52-4.48,6.43-7.97,8.74-3.49,2.3-7.78,4-12.86,5.09-5.09,1.09-10.9,1.63-17.42,1.63-13.12,0-23.02-2.27-29.71-6.82-6.69-4.54-10.03-11.58-10.03-21.12s3.39-16.58,10.18-21.12c6.78-4.54,16.64-6.82,29.57-6.82s23.23,2.22,30.34,6.67c7.1,4.45,10.66,11.54,10.66,21.26,0,4.8-.91,8.96-2.74,12.48ZM277.41,211.75c-.16,1.76-.38,3.54-.67,5.33-.29,1.79-.64,3.49-1.06,5.09-.42,1.6-.91,2.88-1.49,3.84-1.15.26-2.33.46-3.55.62-1.21.16-2.56.24-4.03.24-1.02,0-2.27-.05-3.74-.14-1.47-.1-2.98-.21-4.51-.34-1.54-.13-3.01-.27-4.42-.43-1.41-.16-2.59-.3-3.55-.43.38-.7.82-1.73,1.3-3.07.48-1.34.95-2.8,1.39-4.37.45-1.57.83-3.15,1.15-4.75.32-1.6.48-3.01.48-4.22,0-2.05-.43-3.58-1.3-4.61-.86-1.02-2.03-1.54-3.5-1.54-1.6,0-3.02.58-4.27,1.73-1.25,1.15-2.48,2.59-3.7,4.32-1.21,1.73-2.51,3.6-3.89,5.62-1.38,2.02-2.99,3.89-4.85,5.62-1.86,1.73-4.05,3.17-6.58,4.32-2.53,1.15-5.55,1.73-9.07,1.73-4.09,0-7.47-.78-10.13-2.35-2.66-1.57-4.77-3.55-6.34-5.95-1.57-2.4-2.66-5.06-3.26-7.97-.61-2.91-.91-5.71-.91-8.4,0-.77.03-1.74.1-2.93.06-1.18.16-2.43.29-3.74.13-1.31.3-2.66.53-4.03.23-1.38.53-2.67.91-3.89,1.67-.13,3.22-.22,4.66-.29,1.44-.06,3.09-.1,4.94-.1s3.63.03,5.33.1c1.7.06,3.31.16,4.85.29-.06.51-.16,1.17-.29,1.97-.13.8-.22,1.63-.29,2.5-.06.86-.13,1.73-.19,2.59-.06.86-.1,1.68-.1,2.45,0,3.07.48,5.31,1.44,6.72.96,1.41,2.27,2.11,3.94,2.11.96,0,1.87-.22,2.74-.67.86-.45,1.68-1.04,2.45-1.78.77-.74,1.5-1.57,2.21-2.5.71-.93,1.38-1.87,2.02-2.83,1.09-1.54,2.29-3.09,3.6-4.66,1.31-1.57,2.88-2.99,4.7-4.27,1.82-1.28,3.94-2.34,6.34-3.17,2.4-.83,5.17-1.25,8.3-1.25,4.1,0,7.55.71,10.37,2.11,2.82,1.41,5.1,3.22,6.86,5.42,1.76,2.21,3.04,4.67,3.84,7.39.8,2.72,1.2,5.42,1.2,8.11,0,1.22-.08,2.7-.24,4.46Z"/>
</svg>